<mxfile host="app.diagrams.net" agent="Mozilla/5.0 (Windows NT 10.0; Win64; x64; rv:130.0) Gecko/20100101 Firefox/130.0" version="24.7.13">
  <diagram name="PÃ¡gina-1" id="brSZPWsfwvBzr_20kjrY">
    <mxGraphModel dx="794" dy="414" grid="1" gridSize="10" guides="1" tooltips="1" connect="1" arrows="1" fold="1" page="1" pageScale="1" pageWidth="827" pageHeight="1169" math="0" shadow="0">
      <root>
        <mxCell id="0" />
        <mxCell id="1" parent="0" />
        <mxCell id="0cvQPWQ7vITu7DUzy0x4-1" value="&lt;div&gt;IPHONE&lt;/div&gt;" style="rounded=1;whiteSpace=wrap;html=1;" vertex="1" parent="1">
          <mxGeometry x="340" y="30" width="120" height="120" as="geometry" />
        </mxCell>
        <mxCell id="0cvQPWQ7vITu7DUzy0x4-2" value="&lt;div&gt;INTERNET DEVICE&lt;/div&gt;&lt;div&gt;exibirPagina()&lt;/div&gt;&lt;div&gt;adicionarNovaAba()&lt;/div&gt;&lt;div&gt;atualizarPagina()&lt;br&gt;&lt;/div&gt;" style="rounded=1;whiteSpace=wrap;html=1;" vertex="1" parent="1">
          <mxGeometry x="560" y="265" width="120" height="90" as="geometry" />
        </mxCell>
        <mxCell id="0cvQPWQ7vITu7DUzy0x4-3" value="&lt;div&gt;REPRODUTOR MUSICAL&lt;/div&gt;&lt;div&gt;tocar()&lt;/div&gt;&lt;div&gt;pausar()&lt;/div&gt;&lt;div&gt;selecionarMusica()&lt;br&gt;&lt;/div&gt;" style="rounded=1;whiteSpace=wrap;html=1;" vertex="1" parent="1">
          <mxGeometry x="120" y="255" width="120" height="100" as="geometry" />
        </mxCell>
        <mxCell id="0cvQPWQ7vITu7DUzy0x4-4" value="TELEFONE&lt;br&gt;ligar()&lt;br&gt;atender()&lt;br&gt;&lt;div&gt;iniciarCorreioVoz()&lt;/div&gt;" style="rounded=1;whiteSpace=wrap;html=1;" vertex="1" parent="1">
          <mxGeometry x="340" y="260" width="120" height="100" as="geometry" />
        </mxCell>
        <mxCell id="0cvQPWQ7vITu7DUzy0x4-19" value="1" style="endArrow=open;html=1;endSize=12;startArrow=diamondThin;startSize=14;startFill=1;edgeStyle=orthogonalEdgeStyle;align=left;verticalAlign=bottom;rounded=0;exitX=0.5;exitY=0;exitDx=0;exitDy=0;entryX=0;entryY=0.5;entryDx=0;entryDy=0;sourcePerimeterSpacing=0;fontColor=none;noLabel=1;" edge="1" parent="1" source="0cvQPWQ7vITu7DUzy0x4-3" target="0cvQPWQ7vITu7DUzy0x4-1">
          <mxGeometry x="-1" y="3" relative="1" as="geometry">
            <mxPoint x="330" y="220" as="sourcePoint" />
            <mxPoint x="490" y="220" as="targetPoint" />
          </mxGeometry>
        </mxCell>
        <mxCell id="0cvQPWQ7vITu7DUzy0x4-20" value="1" style="endArrow=open;html=1;endSize=12;startArrow=diamondThin;startSize=14;startFill=1;edgeStyle=orthogonalEdgeStyle;align=left;verticalAlign=bottom;rounded=0;exitX=0.5;exitY=0;exitDx=0;exitDy=0;entryX=0.5;entryY=1;entryDx=0;entryDy=0;sourcePerimeterSpacing=0;fontColor=none;noLabel=1;" edge="1" parent="1" source="0cvQPWQ7vITu7DUzy0x4-4" target="0cvQPWQ7vITu7DUzy0x4-1">
          <mxGeometry x="-1" y="3" relative="1" as="geometry">
            <mxPoint x="330" y="220" as="sourcePoint" />
            <mxPoint x="490" y="220" as="targetPoint" />
          </mxGeometry>
        </mxCell>
        <mxCell id="0cvQPWQ7vITu7DUzy0x4-21" value="1" style="endArrow=open;endSize=12;startArrow=diamondThin;startSize=14;startFill=1;edgeStyle=orthogonalEdgeStyle;align=left;verticalAlign=bottom;rounded=0;exitX=0.5;exitY=0;exitDx=0;exitDy=0;entryX=1;entryY=0.5;entryDx=0;entryDy=0;sourcePerimeterSpacing=0;html=1;fontColor=none;noLabel=1;" edge="1" parent="1" source="0cvQPWQ7vITu7DUzy0x4-2" target="0cvQPWQ7vITu7DUzy0x4-1">
          <mxGeometry x="-1" y="3" relative="1" as="geometry">
            <mxPoint x="330" y="220" as="sourcePoint" />
            <mxPoint x="490" y="220" as="targetPoint" />
          </mxGeometry>
        </mxCell>
      </root>
    </mxGraphModel>
  </diagram>
</mxfile>
